<svg height="512pt" viewBox="-30 0 512 512" width="512pt" xmlns="http://www.w3.org/2000/svg"><path d="m226 168c46.316406 0 84-37.683594 84-84s-37.683594-84-84-84-84 37.683594-84 84 37.683594 84 84 84zm0 0"/><path d="m329.472656 284.996094-103.472656-85.957032v40.960938h-65v90h65v40.964844zm0 0"/><path d="m358.371094 270 18.050781 14.996094-161.722656 134.359375c7.738281 4.140625 17.148437 3.761719 24.570312-1.160157l212.730469-141.007812v-7.1875zm0 0"/><path d="m196 360h-65v-90h-131v6.894531l196 130.1875zm0 0"/><path d="m226 452.21875c-10.394531 0-20.785156-3.007812-29.855469-9.027344l-196.144531-130.28125v199.089844h452v-198.820312l-196.144531 130.011718c-9.070313 6.019532-19.460938 9.027344-29.855469 9.027344zm0 0"/><path d="m131 210h65v-16.015625c-24.929688-6.804687-46.480469-21.875-61.511719-42.078125-23.15625 15.203125-38.488281 41.382812-38.488281 71.09375v17h35zm0 0"/><path d="m263.894531 191.515625 58.363281 48.484375h33.742188v-17c0-29.710938-15.332031-55.890625-38.488281-71.09375-13.417969 18.039062-32.039063 31.984375-53.617188 39.609375zm0 0"/></svg>