<svg id="Capa_1" enable-background="new 0 0 510.034 510.034" height="512" viewBox="0 0 510.034 510.034" width="512" xmlns="http://www.w3.org/2000/svg"><path id="XMLID_864_" d="m112.034 154.073c-15.159 5.995-25.91 20.797-25.91 38.062 0 22.552 18.352 40.9 40.91 40.9 17.264 0 32.064-10.747 38.061-25.9h-53.061z"/><path id="XMLID_865_" d="m189.989 106.118v23.062h23.063c-4.158-10.512-12.551-18.905-23.063-23.062z"/><path id="XMLID_877_" d="m510.034 394.115v-67.48h-240v19.66h-30v-19.66h-240.034v67.48z"/><path id="XMLID_884_" d="m510.034 296.635v-266.236h-510.034v266.236zm-99-191.364v-21.469h30v21.469zm30 24.864v42.045h-30v-42.045zm-90-24.864v-21.469h30v21.469zm30 24.864v42.045h-30v-42.045zm-60-46.333v21.469h-30v-21.469zm-123.09 108.333c0 39.094-31.81 70.9-70.91 70.9s-70.91-31.806-70.91-70.9c0-39.1 31.81-70.91 70.91-70.91h15v55.91h55.91zm47.955-32.955h-85.91v-85.91h15c39.1 0 70.91 31.81 70.91 70.91zm45.135-29.045h30v42.045h-30zm99.266 126.293-36.721-20.911-39.807 23.969-15.475-25.701 54.859-33.031 35.279 20.089 42.334-30.375 17.489 24.375z"/><path id="XMLID_894_" d="m238.928 424.115v25.52h-149.914v30h332.006v-30h-152.092v-25.52z"/></svg>