<svg id="Capa_1" enable-background="new 0 0 512 512" height="512" viewBox="0 0 512 512" width="512" xmlns="http://www.w3.org/2000/svg"><g><path d="m340.669 156.331h-169.338c-8.284 0-15 6.716-15 15v169.338c0 8.284 6.716 15 15 15h169.338c8.284 0 15-6.716 15-15v-169.338c0-8.284-6.716-15-15-15zm-15 169.338h-139.338v-139.338h139.338z"/><path d="m497 235.555c8.284 0 15-6.716 15-15s-6.716-15-15-15h-29.591v-40.891h29.591c8.284 0 15-6.716 15-15s-6.716-15-15-15h-29.591v-75.073c0-8.284-6.716-15-15-15h-75.073v-29.591c0-8.284-6.716-15-15-15s-15 6.716-15 15v29.591h-40.891v-29.591c0-8.284-6.716-15-15-15s-15 6.716-15 15v29.591h-40.891v-29.591c0-8.284-6.716-15-15-15s-15 6.716-15 15v29.591h-40.891v-29.591c0-8.284-6.716-15-15-15s-15 6.716-15 15v29.591h-75.072c-8.284 0-15 6.716-15 15v75.073h-29.591c-8.284 0-15 6.716-15 15s6.716 15 15 15h29.591v40.891h-29.591c-8.284 0-15 6.716-15 15s6.716 15 15 15h29.591v40.891h-29.591c-8.284 0-15 6.716-15 15s6.716 15 15 15h29.591v40.891h-29.591c-8.284 0-15 6.716-15 15s6.716 15 15 15h29.591v75.073c0 8.284 6.716 15 15 15h75.073v29.59c0 8.284 6.716 15 15 15s15-6.716 15-15v-29.591h40.891v29.591c0 8.284 6.716 15 15 15s15-6.716 15-15v-29.591h40.891v29.591c0 8.284 6.716 15 15 15s15-6.716 15-15v-29.591h40.891v29.591c0 8.284 6.716 15 15 15s15-6.716 15-15v-29.591h75.073c8.284 0 15-6.716 15-15v-75.073h29.59c8.284 0 15-6.716 15-15s-6.716-15-15-15h-29.591v-40.891h29.591c8.284 0 15-6.716 15-15s-6.716-15-15-15h-29.591v-40.891h29.591zm-59.591 40.89h-29.592c-8.284 0-15 6.716-15 15s6.716 15 15 15h29.592v40.891h-29.592c-8.284 0-15 6.716-15 15s6.716 15 15 15h29.592v60.073h-60.073v-29.591c0-8.284-6.716-15-15-15s-15 6.716-15 15v29.591h-40.891v-29.591c0-8.284-6.716-15-15-15s-15 6.716-15 15v29.591h-40.891v-29.591c0-8.284-6.716-15-15-15s-15 6.716-15 15v29.591h-40.891v-29.591c0-8.284-6.716-15-15-15s-15 6.716-15 15v29.591h-60.072v-60.073h29.591c8.284 0 15-6.716 15-15s-6.716-15-15-15h-29.591v-40.891h29.591c8.284 0 15-6.716 15-15s-6.716-15-15-15h-29.591v-40.891h29.591c8.284 0 15-6.716 15-15s-6.716-15-15-15h-29.591v-40.891h29.591c8.284 0 15-6.716 15-15s-6.716-15-15-15h-29.591v-60.072h60.073v29.591c0 8.284 6.716 15 15 15s15-6.716 15-15v-29.591h40.891v29.591c0 8.284 6.716 15 15 15s15-6.716 15-15v-29.591h40.891v29.591c0 8.284 6.716 15 15 15s15-6.716 15-15v-29.591h40.891v29.591c0 8.284 6.716 15 15 15s15-6.716 15-15v-29.591h60.073v60.073h-29.592c-8.284 0-15 6.716-15 15s6.716 15 15 15h29.592v40.891h-29.592c-8.284 0-15 6.716-15 15s6.716 15 15 15h29.592v40.89z"/></g></svg>