<svg id="bold" enable-background="new 0 0 24 24" height="512" viewBox="0 0 24 24" width="512" xmlns="http://www.w3.org/2000/svg"><circle cx="12" cy="6" r="4"/><path d="m15.25 12h-6.5c-2.619 0-4.75 2.131-4.75 4.75v2.5c0 .414.336.75.75.75h14.5c.414 0 .75-.336.75-.75v-2.5c0-2.619-2.131-4.75-4.75-4.75z"/><path d="m5 0h-2c-1.654 0-3 1.346-3 3v2c0 .553.448 1 1 1s1-.447 1-1v-2c0-.552.449-1 1-1h2c.552 0 1-.447 1-1s-.448-1-1-1z"/><path d="m5 22h-2c-.551 0-1-.448-1-1v-2c0-.553-.448-1-1-1s-1 .447-1 1v2c0 1.654 1.346 3 3 3h2c.552 0 1-.447 1-1s-.448-1-1-1z"/><path d="m21 0h-2c-.552 0-1 .447-1 1s.448 1 1 1h2c.551 0 1 .448 1 1v2c0 .553.448 1 1 1s1-.447 1-1v-2c0-1.654-1.346-3-3-3z"/><path d="m23 18c-.552 0-1 .447-1 1v2c0 .552-.449 1-1 1h-2c-.552 0-1 .447-1 1s.448 1 1 1h2c1.654 0 3-1.346 3-3v-2c0-.553-.448-1-1-1z"/></svg>